{
  "asset": {
    "version": "2.0",
    "generator": "Sketchup glTF Exporter v1.2.6 by Centaur"
  },
  "scene": 0,
  "scenes": [
    {
      "nodes": [
        0
      ]
    }
  ],
  "samplers": [
    {
    }
  ],
  "nodes": [
    {
      "name": "root",
      "children": [
        1,
        6
      ]
    },
    {
      "children": [
        2,
        3
      ]
    },
    {
      "mesh": 0
    },
    {
      "name": "2d_bed_double",
      "children": [
        4,
        5
      ]
    },
    {
      "name": "2d_pillow"
    },
    {
      "name": "2d_pillow"
    },
    {
      "children": [
        7,
        8,
        9,
        10,
        11,
        12,
        14,
        16,
        18,
        19
      ]
    },
    {
      "mesh": 1
    },
    {
      "name": "Component#10",
      "mesh": 2
    },
    {
      "name": "Component#11",
      "mesh": 3
    },
    {
      "name": "Component#12",
      "mesh": 4
    },
    {
      "mesh": 5
    },
    {
      "name": "50x50_HaywardSky",
      "children": [
        13
      ],
      "mesh": 7
    },
    {
      "mesh": 6
    },
    {
      "name": "50x50_HaywardSky",
      "children": [
        15
      ],
      "mesh": 9
    },
    {
      "mesh": 8
    },
    {
      "name": "50x50_HaywardSky#1",
      "children": [
        17
      ],
      "mesh": 11
    },
    {
      "mesh": 10
    },
    {
      "name": "Component#4",
      "mesh": 12
    },
    {
      "name": "50x50_HaywardSky#1",
      "children": [
        20
      ],
      "mesh": 14
    },
    {
      "mesh": 13
    }
  ],
  "materials": [
    {
      "pbrMetallicRoughness": {
        "baseColorFactor": [
          0.2176,
          0.2176,
          0.2176,
          1.0
        ],
        "metallicFactor": 0.1,
        "roughnessFactor": 0.9
      },
      "name": "default material",
      "doubleSided": true
    },
    {
      "pbrMetallicRoughness": {
        "baseColorTexture": {
          "index": 0
        },
        "metallicFactor": 0.1,
        "roughnessFactor": 0.9
      },
      "name": "Q_GoCN_1"
    },
    {
      "pbrMetallicRoughness": {
        "baseColorTexture": {
          "index": 1
        },
        "metallicFactor": 0.1,
        "roughnessFactor": 0.9
      },
      "name": "Q_Vai_ghe_2"
    },
    {
      "pbrMetallicRoughness": {
        "baseColorTexture": {
          "index": 2
        },
        "metallicFactor": 0.1,
        "roughnessFactor": 0.9
      },
      "name": "Q_Vai_Den_Tapluy"
    },
    {
      "pbrMetallicRoughness": {
        "baseColorTexture": {
          "index": 3
        },
        "metallicFactor": 0.1,
        "roughnessFactor": 0.9
      },
      "name": "Q_Vai_giuong_1"
    }
  ],
  "images": [
    {
      "bufferView": 0,
      "mimeType": "image/jpeg"
    },
    {
      "bufferView": 1,
      "mimeType": "image/jpeg"
    },
    {
      "bufferView": 2,
      "mimeType": "image/jpeg"
    },
    {
      "bufferView": 3,
      "mimeType": "image/jpeg"
    }
  ],
  "textures": [
    {
      "source": 0,
      "sampler": 0
    },
    {
      "source": 1,
      "sampler": 0
    },
    {
      "source": 2,
      "sampler": 0
    },
    {
      "source": 3,
      "sampler": 0
    }
  ],
  "meshes": [
    {
      "primitives": [
        {
          "attributes": {
            "POSITION": 0,
            "NORMAL": 1
          },
          "indices": 5,
          "mode": 4,
          "material": 0
        }
      ]
    },
    {
      "primitives": [
        {
          "attributes": {
            "POSITION": 2,
            "NORMAL": 3,
            "TEXCOORD_0": 4
          },
          "indices": 6,
          "mode": 4,
          "material": 1
        }
      ]
    },
    {
      "primitives": [
        {
          "attributes": {
            "POSITION": 2,
            "NORMAL": 3,
            "TEXCOORD_0": 4
          },
          "indices": 7,
          "mode": 4,
          "material": 1
        }
      ]
    },
    {
      "primitives": [
        {
          "attributes": {
            "POSITION": 2,
            "NORMAL": 3,
            "TEXCOORD_0": 4
          },
          "indices": 8,
          "mode": 4,
          "material": 1
        }
      ]
    },
    {
      "primitives": [
        {
          "attributes": {
            "POSITION": 2,
            "NORMAL": 3,
            "TEXCOORD_0": 4
          },
          "indices": 9,
          "mode": 4,
          "material": 1
        }
      ]
    },
    {
      "primitives": [
        {
          "attributes": {
            "POSITION": 2,
            "NORMAL": 3,
            "TEXCOORD_0": 4
          },
          "indices": 10,
          "mode": 4,
          "material": 2
        }
      ]
    },
    {
      "primitives": [
        {
          "attributes": {
            "POSITION": 2,
            "NORMAL": 3,
            "TEXCOORD_0": 4
          },
          "indices": 11,
          "mode": 4,
          "material": 3
        },
        {
          "attributes": {
            "POSITION": 0,
            "NORMAL": 1
          },
          "indices": 12,
          "mode": 4,
          "material": 0
        }
      ]
    },
    {
      "primitives": [
        {
          "attributes": {
            "POSITION": 2,
            "NORMAL": 3,
            "TEXCOORD_0": 4
          },
          "indices": 13,
          "mode": 4,
          "material": 3
        },
        {
          "attributes": {
            "POSITION": 0,
            "NORMAL": 1
          },
          "indices": 14,
          "mode": 4,
          "material": 0
        }
      ]
    },
    {
      "primitives": [
        {
          "attributes": {
            "POSITION": 2,
            "NORMAL": 3,
            "TEXCOORD_0": 4
          },
          "indices": 15,
          "mode": 4,
          "material": 3
        },
        {
          "attributes": {
            "POSITION": 0,
            "NORMAL": 1
          },
          "indices": 16,
          "mode": 4,
          "material": 0
        }
      ]
    },
    {
      "primitives": [
        {
          "attributes": {
            "POSITION": 2,
            "NORMAL": 3,
            "TEXCOORD_0": 4
          },
          "indices": 17,
          "mode": 4,
          "material": 3
        },
        {
          "attributes": {
            "POSITION": 0,
            "NORMAL": 1
          },
          "indices": 18,
          "mode": 4,
          "material": 0
        }
      ]
    },
    {
      "primitives": [
        {
          "attributes": {
            "POSITION": 2,
            "NORMAL": 3,
            "TEXCOORD_0": 4
          },
          "indices": 19,
          "mode": 4,
          "material": 3
        },
        {
          "attributes": {
            "POSITION": 0,
            "NORMAL": 1
          },
          "indices": 20,
          "mode": 4,
          "material": 0
        }
      ]
    },
    {
      "primitives": [
        {
          "attributes": {
            "POSITION": 2,
            "NORMAL": 3,
            "TEXCOORD_0": 4
          },
          "indices": 21,
          "mode": 4,
          "material": 3
        },
        {
          "attributes": {
            "POSITION": 0,
            "NORMAL": 1
          },
          "indices": 22,
          "mode": 4,
          "material": 0
        }
      ]
    },
    {
      "primitives": [
        {
          "attributes": {
            "POSITION": 2,
            "NORMAL": 3,
            "TEXCOORD_0": 4
          },
          "indices": 23,
          "mode": 4,
          "material": 4
        },
        {
          "attributes": {
            "POSITION": 0,
            "NORMAL": 1
          },
          "indices": 24,
          "mode": 4,
          "material": 0
        }
      ]
    },
    {
      "primitives": [
        {
          "attributes": {
            "POSITION": 2,
            "NORMAL": 3,
            "TEXCOORD_0": 4
          },
          "indices": 25,
          "mode": 4,
          "material": 3
        },
        {
          "attributes": {
            "POSITION": 0,
            "NORMAL": 1
          },
          "indices": 26,
          "mode": 4,
          "material": 0
        }
      ]
    },
    {
      "primitives": [
        {
          "attributes": {
            "POSITION": 2,
            "NORMAL": 3,
            "TEXCOORD_0": 4
          },
          "indices": 27,
          "mode": 4,
          "material": 3
        },
        {
          "attributes": {
            "POSITION": 0,
            "NORMAL": 1
          },
          "indices": 28,
          "mode": 4,
          "material": 0
        }
      ]
    }
  ],
  "accessors": [
    {
      "bufferView": 4,
      "componentType": 5126,
      "count": 259,
      "type": "VEC3",
      "min": [
        -0.9400000000000008,
        0.005000000000000533,
        -4.440892098500626e-16
      ],
      "max": [
        0.9400000000000002,
        0.6807807793326328,
        2.0799999999999983
      ]
    },
    {
      "bufferView": 5,
      "componentType": 5126,
      "count": 259,
      "type": "VEC3",
      "min": [
        -4.934465645369897e-07,
        -0.9999999999997793,
        -0.27060044597583405
      ],
      "max": [
        4.095623888083266e-07,
        1.0,
        0.2706004459758338
      ]
    },
    {
      "bufferView": 6,
      "componentType": 5126,
      "count": 3324,
      "type": "VEC3",
      "min": [
        -0.9400000000000006,
        -2.3553601698031974e-15,
        -4.718447854656915e-16
      ],
      "max": [
        0.9400000000000002,
        0.8999999999999996,
        2.0799999999999983
      ]
    },
    {
      "bufferView": 7,
      "componentType": 5126,
      "count": 3324,
      "type": "VEC3",
      "min": [
        -1.0,
        -1.0,
        -1.0
      ],
      "max": [
        1.0,
        1.0,
        1.0
      ]
    },
    {
      "bufferView": 8,
      "componentType": 5126,
      "count": 3324,
      "type": "VEC2",
      "min": [
        -73.30708952825415,
        -32.464566929133866
      ],
      "max": [
        72.71653834715178,
        70.36813300970523
      ]
    },
    {
      "bufferView": 9,
      "componentType": 5123,
      "count": 60,
      "type": "SCALAR"
    },
    {
      "bufferView": 10,
      "componentType": 5123,
      "count": 36,
      "type": "SCALAR"
    },
    {
      "bufferView": 10,
      "componentType": 5123,
      "count": 36,
      "type": "SCALAR",
      "byteOffset": 72
    },
    {
      "bufferView": 10,
      "componentType": 5123,
      "count": 36,
      "type": "SCALAR",
      "byteOffset": 144
    },
    {
      "bufferView": 10,
      "componentType": 5123,
      "count": 84,
      "type": "SCALAR",
      "byteOffset": 216
    },
    {
      "bufferView": 10,
      "componentType": 5123,
      "count": 1140,
      "type": "SCALAR",
      "byteOffset": 384
    },
    {
      "bufferView": 10,
      "componentType": 5123,
      "count": 840,
      "type": "SCALAR",
      "byteOffset": 2664
    },
    {
      "bufferView": 9,
      "componentType": 5123,
      "count": 54,
      "type": "SCALAR",
      "byteOffset": 120
    },
    {
      "bufferView": 10,
      "componentType": 5123,
      "count": 1212,
      "type": "SCALAR",
      "byteOffset": 4344
    },
    {
      "bufferView": 9,
      "componentType": 5123,
      "count": 108,
      "type": "SCALAR",
      "byteOffset": 228
    },
    {
      "bufferView": 10,
      "componentType": 5123,
      "count": 840,
      "type": "SCALAR",
      "byteOffset": 6768
    },
    {
      "bufferView": 9,
      "componentType": 5123,
      "count": 54,
      "type": "SCALAR",
      "byteOffset": 444
    },
    {
      "bufferView": 10,
      "componentType": 5123,
      "count": 1212,
      "type": "SCALAR",
      "byteOffset": 8448
    },
    {
      "bufferView": 9,
      "componentType": 5123,
      "count": 108,
      "type": "SCALAR",
      "byteOffset": 552
    },
    {
      "bufferView": 10,
      "componentType": 5123,
      "count": 840,
      "type": "SCALAR",
      "byteOffset": 10872
    },
    {
      "bufferView": 9,
      "componentType": 5123,
      "count": 54,
      "type": "SCALAR",
      "byteOffset": 768
    },
    {
      "bufferView": 10,
      "componentType": 5123,
      "count": 1212,
      "type": "SCALAR",
      "byteOffset": 12552
    },
    {
      "bufferView": 9,
      "componentType": 5123,
      "count": 108,
      "type": "SCALAR",
      "byteOffset": 876
    },
    {
      "bufferView": 10,
      "componentType": 5123,
      "count": 198,
      "type": "SCALAR",
      "byteOffset": 14976
    },
    {
      "bufferView": 9,
      "componentType": 5123,
      "count": 6,
      "type": "SCALAR",
      "byteOffset": 1092
    },
    {
      "bufferView": 10,
      "componentType": 5123,
      "count": 840,
      "type": "SCALAR",
      "byteOffset": 15372
    },
    {
      "bufferView": 9,
      "componentType": 5123,
      "count": 54,
      "type": "SCALAR",
      "byteOffset": 1104
    },
    {
      "bufferView": 10,
      "componentType": 5123,
      "count": 1212,
      "type": "SCALAR",
      "byteOffset": 17052
    },
    {
      "bufferView": 9,
      "componentType": 5123,
      "count": 108,
      "type": "SCALAR",
      "byteOffset": 1212
    }
  ],
  "bufferViews": [
    {
      "buffer": 0,
      "byteLength": 141141
    },
    {
      "buffer": 0,
      "byteOffset": 141141,
      "byteLength": 170069
    },
    {
      "buffer": 0,
      "byteOffset": 311210,
      "byteLength": 45052
    },
    {
      "buffer": 0,
      "byteOffset": 356262,
      "byteLength": 16718
    },
    {
      "buffer": 0,
      "byteOffset": 372984,
      "byteLength": 3108,
      "target": 34962,
      "byteStride": 12
    },
    {
      "buffer": 0,
      "byteOffset": 376092,
      "byteLength": 3108,
      "target": 34962,
      "byteStride": 12
    },
    {
      "buffer": 0,
      "byteOffset": 379200,
      "byteLength": 39888,
      "target": 34962,
      "byteStride": 12
    },
    {
      "buffer": 0,
      "byteOffset": 419088,
      "byteLength": 39888,
      "target": 34962,
      "byteStride": 12
    },
    {
      "buffer": 0,
      "byteOffset": 458976,
      "byteLength": 26592,
      "target": 34962,
      "byteStride": 8
    },
    {
      "buffer": 0,
      "byteOffset": 485568,
      "byteLength": 1428,
      "target": 34963
    },
    {
      "buffer": 0,
      "byteOffset": 486996,
      "byteLength": 19476,
      "target": 34963
    }
  ],
  "buffers": [
    {
      "uri": "data:application/octet-stream;base64,",
      "byteLength": 506472
    }
  ]
}